<svg version="1.2" xmlns="http://www.w3.org/2000/svg" viewBox="0 0 385 366" width="385" height="366"><defs><clipPath clipPathUnits="userSpaceOnUse" id="cp1"><path d="m-187-198h752v752h-752z"/></clipPath></defs><style>.a{fill:#63a335}.b{fill:#7fcb4a}.c{fill:#70b646}.d{fill:#8dd260}.e{fill:#f68f34}.f{fill:#fabb34}.g{fill:none;stroke:#f68f34;stroke-linecap:round;stroke-miterlimit:10;stroke-width:12.2}</style><g clip-path="url(#cp1)"><path class="a" d="m305.8 104c1.1 1.2 1.1 3-0.1 4.1l-205.6 191c-1.2 1.1-3 1-4.1-0.2l-86-92.7c-1-1.2-1-3 0.2-4.1l205.6-191c1.1-1.1 3-1 4.1 0.2 0 0 85.9 92.7 85.9 92.7z"/><path class="b" d="m287.6 105.8c0.9 1 0.7 2.6-0.3 3.5l-184.6 171.5c-1 1-2.6 1-3.5 0l-70.9-76.4c-0.9-1-0.8-2.6 0.3-3.5l184.6-171.5c1-1 2.6-1 3.5 0z"/><path class="a" d="m184.6 130.3c13.7 14.8 12.9 37.8-1.9 51.5-14.7 13.7-37.8 12.9-51.5-1.9-13.6-14.7-12.8-37.8 1.9-51.5 14.8-13.7 37.8-12.9 51.5 1.9zm-156.3 74.1l19.2 20.7c12.4-11.5 13.1-30.9 1.6-43.3l-20.5 19.1c-1.1 0.9-1.2 2.5-0.3 3.5z"/><path class="c" d="m102.6 280.9l20.7-19.2c-11.6-12.4-30.9-13.1-43.3-1.6l19 20.6c1 1 2.6 1.2 3.6 0.2z"/><path class="a" d="m216.7 29.4l19.2 20.7c-12.4 11.5-31.8 10.8-43.3-1.6l20.6-19.1c1-1 2.6-1 3.5 0zm70.7 79.8l-20.7 19.2c-11.5-12.4-10.7-31.8 1.7-43.3l19 20.6c1 1 1 2.6 0 3.5z"/><path class="c" d="m370 218.6c0.4 1.5-0.5 3.2-2 3.6l-269.5 77.7c-1.6 0.4-3.2-0.5-3.6-2l-35-121.6c-0.4-1.5 0.5-3.1 2-3.6l269.5-77.6c1.6-0.5 3.2 0.4 3.6 2 0 0 35 121.5 35 121.5z"/><path class="d" d="m352.8 212c0.4 1.3-0.4 2.6-1.8 3l-242 69.8c-1.4 0.4-2.8-0.4-3.1-1.6l-28.9-100.2c-0.3-1.3 0.5-2.7 1.9-3.1l242-69.7c1.3-0.4 2.7 0.3 3.1 1.6 0 0 28.8 100.2 28.8 100.2z"/><path class="c" d="m249.9 187.4c5.6 19.3-5.6 39.5-24.9 45.1-19.3 5.6-39.5-5.6-45.1-24.9-5.5-19.4 5.6-39.6 25-45.2 19.3-5.5 39.5 5.6 45 25zm-172.9-4.4l7.8 27.1c16.3-4.7 25.7-21.6 21-37.9l-26.9 7.7c-1.4 0.4-2.2 1.8-1.9 3.1zm31.8 101.8l27.1-7.8c-4.6-16.3-21.6-25.7-37.9-21l7.8 27c0.4 1.3 1.7 2.2 3 1.8zm215.2-173l7.8 27.1c-16.2 4.7-33.2-4.7-37.9-20.9l27-7.8c1.3-0.4 2.7 0.3 3.1 1.6zm27.2 103.2l-27.1 7.8c-4.7-16.3 4.7-33.3 20.9-38l7.8 27c0.4 1.4-0.3 2.8-1.6 3.2z"/><path class="e" d="m246.6 252.2c0 52.3-42.4 94.7-94.7 94.7-52.3 0-94.7-42.4-94.7-94.7 0-52.4 42.4-94.8 94.7-94.8 52.3 0 94.7 42.4 94.7 94.8z"/><path class="f" d="m225.3 252.2c0 40.5-32.8 73.4-73.4 73.4-40.5 0-73.4-32.9-73.4-73.4 0-40.6 32.9-73.5 73.4-73.5 40.6 0 73.4 32.9 73.4 73.5z"/><path class="g" d="m176.4 227.3c0 0-1.3-15.7-22-17.3-16.4-1.2-26.3 4.6-28 15.6 0 0-2.3 15.7 7.5 20.8 11.5 6 43.5 6.8 43.9 28.1 0 0 1.3 18.9-25 18.9 0 0-25.4 0.7-26.8-15.2"/><path class="g" d="m141 196.4v14.5"/><path class="g" d="m159.5 196.4v14.5"/><path class="g" d="m142.6 293.4v14.6"/><path class="g" d="m161.2 293.4v14.6"/></g></svg>