<svg version="1.2" xmlns="http://www.w3.org/2000/svg" viewBox="0 0 80 63" width="80" height="63"><style>.a{fill:#a7fed9}.b{fill:#ebb3ff}.c{fill:#fff}</style><path class="a" d="m0.5 6.1c0-15 12.1-27.1 27-27.1 15 0 27.1 12.1 27.1 27.1v27.1h-27.1c-14.9 0-27-12.1-27-27.1z"/><path class="b" d="m98 15.1c0-9.9-8.1-18-18.1-18-9.9 0-18 8.1-18 18v18.1h18c10 0 18.1-8.1 18.1-18.1z"/><path class="c" d="m33.9 52.6c0 5.7 4.6 10.4 10.4 10.4 5.7 0 10.3-4.7 10.3-10.4v-10.4h-10.3c-5.8 0-10.4 4.7-10.4 10.4z"/></svg>