<svg width="160" height="126" viewBox="0 0 160 126" fill="none" xmlns="http://www.w3.org/2000/svg">
<path d="M0.903183 12.1936C0.903183 -17.7367 25.1665 -42 55.0967 -42C85.027 -42 109.29 -17.7367 109.29 12.1936V66.3871H55.0967C25.1664 66.3871 0.903183 42.1238 0.903183 12.1936Z" fill="#A7FED9"/>
<path d="M196 30.2581C196 10.3045 179.824 -5.87097 159.871 -5.87097C139.917 -5.87097 123.742 10.3045 123.742 30.2581V66.3871H159.871C179.824 66.3871 196 50.2116 196 30.2581Z" fill="#EBB3FF"/>
<path d="M67.742 105.226C67.742 116.699 77.0429 126 88.5162 126C99.9895 126 109.29 116.699 109.29 105.226V84.4516H88.5162C77.0429 84.4516 67.742 93.7525 67.742 105.226Z" fill="white"/>
</svg>
